<svg t="1508656910114" class="icon" style="" viewBox="0 0 1024 1024" version="1.1" xmlns="http://www.w3.org/2000/svg"
     p-id="5172">
    <defs>
        <style type="text/css"></style>
    </defs>
    <path d="M1023.200625 315.753318v392.493364c-0.799375 2.398126-0.799375 5.595628-1.598751 7.993755-6.395004 30.376269-31.97502 51.160031-63.150664 51.160031H768.199844v59.153786c0 3.996877 1.598751 5.595628 5.595628 5.595629h58.354411v62.351288H578.747853v-62.351288h57.555035c4.796253 0 5.595628-1.598751 5.595629-5.595629v-53.558157-4.796253h-127.900078V958.45121c0 31.175644-19.984387 55.956284-50.360656 63.150664-3.197502 0.799375-5.595628 1.598751-8.79313 2.398126H62.351288c-0.799375 0-2.398126-0.799375-3.197502-0.799375-27.978142-3.996877-47.962529-22.382514-54.357533-49.561281-0.799375-2.398126-1.598751-5.595628-1.598751-7.993755V62.351288c0-0.799375 0.799375-2.398126 0.799375-3.197502 3.996877-27.978142 23.181889-47.962529 50.360656-54.357533 2.398126-0.799375 5.595628-0.799375 7.993755-1.598751h392.493365c2.398126 0.799375 5.595628 0.799375 7.993754 1.598751 30.376269 6.395004 51.160031 31.97502 51.160032 63.150663v191.050742h446.051522c31.175644 0 56.75566 20.783763 63.150664 51.160031-0.799375 0.799375-0.799375 3.197502 0 5.595629z m-637.90164 69.545667V327.74395c0-7.194379 0-7.194379-7.194379-7.194379h-247.806401v-62.351288h254.201405v56.755659c7.194379-35.172521 28.777518-54.357533 64.749414-57.555035v-6.395004-114.310695c0-12.790008-3.996877-22.382514-13.589383-29.576893-11.191257-9.592506-23.981265-16.786885-37.570648-22.382513-24.78064-10.391881-50.360656-18.385636-77.539422-19.185012-63.950039-0.799375-127.900078 0-191.850117 0-35.971897 0-64.749415 28.777518-64.749415 64.749415v505.205308c0 4.796253 1.598751 5.595628 6.395004 5.595628H384.49961v-6.395004-178.260733c0-7.194379 0-7.194379-7.19438-7.19438h-247.806401v-63.150663c85.533177-0.799375 170.266979-0.799375 255.800156-0.799376zM703.450429 640.299766h191.050742c35.971897 0 64.749415-27.978142 64.749414-63.950039v-191.850117c0-35.971897-28.777518-63.950039-64.749414-63.950039H513.199063c-4.796253 0-9.592506 0.799375-13.589383 1.598751-31.175644 7.194379-51.959407 32.774395-51.959407 64.749414V575.550351c0 41.567525 34.373146 66.348165 65.54879 65.54879 63.950039-0.799375 127.100703-0.799375 190.251366-0.799375z m-446.850897 255.800156c35.971897 0 64.749415-28.777518 64.749414-63.950039s-28.777518-64.749415-63.950039-64.749415c-35.971897 0-64.749415 28.777518-64.749414 63.950039 0 35.971897 28.777518 64.749415 63.950039 64.749415z"
          p-id="5173"></path>
</svg>